<?xml version="1.0" standalone="no"?>
<!DOCTYPE svg PUBLIC "-//W3C//DTD SVG 20010904//EN"
 "http://www.w3.org/TR/2001/REC-SVG-20010904/DTD/svg10.dtd">
<svg version="1.0" xmlns="http://www.w3.org/2000/svg"
 width="180.000000pt" height="180.000000pt" viewBox="0 0 180.000000 180.000000"
 preserveAspectRatio="xMidYMid meet">
<metadata>
Created by potrace 1.14, written by Peter Selinger 2001-2017
</metadata>
<g transform="translate(0.000000,180.000000) scale(0.100000,-0.100000)"
fill="#000000" stroke="none">
<path d="M543 1418 c-5 -7 -22 -44 -38 -83 -15 -38 -36 -88 -46 -110 -9 -22
-44 -107 -78 -190 -96 -239 -179 -442 -201 -488 -31 -66 -72 -105 -124 -118
-52 -13 -59 -19 -46 -39 6 -10 52 -13 216 -14 191 -1 209 0 212 17 2 9 -2 19
-10 21 -7 2 -32 9 -55 15 -43 12 -59 34 -55 76 2 11 23 77 49 148 l46 127 41
1 c126 3 199 0 206 -7 6 -7 49 -134 96 -282 7 -22 -39 -58 -83 -65 -42 -7 -61
-29 -40 -44 7 -5 124 -9 262 -9 225 1 250 3 253 18 2 12 -10 20 -51 32 -59 17
-103 46 -112 75 -5 18 76 256 94 274 14 14 231 14 242 1 20 -24 99 -278 93
-299 -6 -25 -33 -40 -88 -50 -26 -5 -36 -12 -36 -26 0 -23 -12 -22 282 -23
216 -2 238 2 220 31 -4 6 -26 16 -49 22 -25 7 -57 26 -77 47 -35 36 -46 64
-201 494 -164 456 -159 445 -183 448 -13 2 -22 -2 -22 -9 0 -7 -6 -5 -14 6
-20 28 -39 13 -65 -51 -13 -33 -30 -72 -37 -89 -7 -16 -34 -82 -60 -145 -25
-63 -52 -128 -59 -145 -7 -16 -37 -90 -66 -162 -29 -73 -54 -131 -55 -130 -2
1 -59 158 -128 347 -68 190 -128 353 -132 363 -5 14 -14 18 -35 13 -16 -3 -31
-1 -34 4 -8 14 -21 12 -32 -2z m83 -545 c6 -33 6 -33 -32 -34 -95 -2 -146 0
-151 5 -4 4 14 57 89 256 9 22 14 13 49 -85 21 -60 42 -125 45 -142z m627 115
c24 -70 41 -132 36 -139 -4 -7 -27 -12 -53 -11 -149 2 -135 -1 -127 30 5 15
20 56 34 92 14 36 33 86 42 113 10 26 19 46 21 44 2 -2 23 -60 47 -129z"/>
</g>
</svg>
